<?xml version="1.0" encoding="UTF-8" standalone="no"?>
<svg
   width="24"
   height="24"
   viewBox="0 0 24 24"
   version="1.1"
   id="svg531"
   sodipodi:docname="media-playback-paused.svg"
   inkscape:version="1.2.2 (b0a8486541, 2022-12-01)"
   xmlns:inkscape="http://www.inkscape.org/namespaces/inkscape"
   xmlns:sodipodi="http://sodipodi.sourceforge.net/DTD/sodipodi-0.dtd"
   xmlns="http://www.w3.org/2000/svg"
   xmlns:svg="http://www.w3.org/2000/svg">
  <defs
     id="defs535" />
  <sodipodi:namedview
     id="namedview533"
     pagecolor="#ffffff"
     bordercolor="#000000"
     borderopacity="0.25"
     inkscape:showpageshadow="2"
     inkscape:pageopacity="0.0"
     inkscape:pagecheckerboard="0"
     inkscape:deskcolor="#d1d1d1"
     showgrid="false"
     inkscape:zoom="33.708333"
     inkscape:cx="12"
     inkscape:cy="11.985167"
     inkscape:current-layer="svg531" />
  <style
     type="text/css"
     id="current-color-scheme">
        .ColorScheme-Text {
            color:#363636;
        }
    </style>
  <g
     transform="translate(1,1)"
     id="g529">
    <g
       id="media-playback-stopped"
       transform="translate(24) translate(-48,0)">
      <path
         d="m24 0h22v22h-22z"
         fill="none"
         id="path520" />
      <g
         class="ColorScheme-Text"
         fill="currentColor"
         fill-rule="evenodd"
         id="g526">
        <path
           d="m35 3a8 8 0 0 0 -8 8 8 8 0 0 0 8 8 8 8 0 0 0 8-8 8 8 0 0 0 -8-8zm0 1a7 7 0 0 1 7 7 7 7 0 0 1 -7 7 7 7 0 0 1 -7-7 7 7 0 0 1 7-7z"
           id="path522" />
      </g>
    </g>
  </g>
  <path
     class="ColorScheme-Text"
     d="m 9,9 v 5.999999 h 1 V 9 Z m 5,0 v 5.999999 h 1 V 9 Z"
     fill="currentColor"
     id="path5"
     style="color:#363636" />
</svg>
