<svg xmlns="http://www.w3.org/2000/svg" width="16" height="16">
    <path fill="#050505" fill-opacity=".7" d="M7.308 4.453c-.111 0-.136.005-.21.041a.529.529 0 0 0-.242.243.546.546 0 0 0-.021.374c.015.038.149.28.298.538.149.257.271.478.272.49 0 .011-.367.658-.817 1.437L5.77 8.992 4.286 9l-.084.039a.538.538 0 0 0-.254.253.384.384 0 0 0-.04.204c0 .102.006.132.04.203a.522.522 0 0 0 .341.286c.03.007 1.104.013 2.425.014L9.087 10l.027-.03c.022-.024.026-.05.025-.164-.001-.345-.2-.674-.473-.783-.05-.02-.159-.024-.898-.03l-.84-.007.24-.413C8.66 6.006 9.142 5.17 9.165 5.111a.383.383 0 0 0 .021-.182.488.488 0 0 0-.284-.435c-.074-.036-.099-.04-.21-.04a.391.391 0 0 0-.213.04c-.122.056-.195.142-.345.405-.069.12-.13.219-.134.219-.006 0-.066-.099-.134-.219-.151-.264-.214-.338-.339-.4-.084-.042-.105-.046-.22-.046zM8.746 6.42c-.03 0-.106.075-.16.157-.184.286-.258.873-.155 1.242.02.07.262.5 1.053 1.867.565.978 1.049 1.8 1.075 1.83a.5.5 0 0 0 .865-.38.583.583 0 0 0-.037-.156 15.067 15.067 0 0 0-.292-.517l-.263-.455.882-.014.084-.04a.538.538 0 0 0 .254-.252.384.384 0 0 0 .04-.205.375.375 0 0 0-.04-.202.54.54 0 0 0-.252-.255L11.714 9l-1.47-.007-.74-1.286a40.474 40.474 0 0 0-.758-1.287zm-3.5 3.812a.49.49 0 0 0-.175.021c-.03.016-.084.095-.208.308-.25.428-.268.47-.268.607 0 .217.119.389.325.472a.61.61 0 0 0 .387-.017c.13-.061.19-.142.462-.615l.255-.44-.023-.04c-.06-.107-.239-.213-.446-.264a1.41 1.41 0 0 0-.31-.032z"/>
    <path fill="#050505" fill-opacity=".7" d="M3 1c-1.108 0-2 .892-2 2v10c0 1.108.892 2 2 2h10c1.108 0 2-.892 2-2V3c0-1.108-.892-2-2-2H3zm0 1h10c.554 0 1 .446 1 1v10c0 .554-.446 1-1 1H3c-.554 0-1-.446-1-1V3c0-.554.446-1 1-1z"/>
</svg>
