<?xml version="1.0" encoding="UTF-8" standalone="no"?>
<svg
   version="1.1"
   viewBox="0 0 22 22"
   id="svg11"
   sodipodi:docname="disk-quota-critical.svg"
   inkscape:version="1.2.2 (b0a8486541, 2022-12-01)"
   xmlns:inkscape="http://www.inkscape.org/namespaces/inkscape"
   xmlns:sodipodi="http://sodipodi.sourceforge.net/DTD/sodipodi-0.dtd"
   xmlns="http://www.w3.org/2000/svg"
   xmlns:svg="http://www.w3.org/2000/svg">
  <sodipodi:namedview
     id="namedview13"
     pagecolor="#ffffff"
     bordercolor="#000000"
     borderopacity="0.25"
     inkscape:showpageshadow="2"
     inkscape:pageopacity="0.0"
     inkscape:pagecheckerboard="0"
     inkscape:deskcolor="#d1d1d1"
     showgrid="false"
     inkscape:zoom="36.772727"
     inkscape:cx="10.972806"
     inkscape:cy="11.027194"
     inkscape:current-layer="svg11" />
  <defs
     id="defs3">
    <style
       id="current-color-scheme"
       type="text/css">.ColorScheme-Text {
                color:#363636;
            }
            .ColorScheme-NegativeText {
                color:#bd7575;
            }</style>
  </defs>
  <path
     class="ColorScheme-NegativeText"
     d="m16 12c-1.6569 0-3 0.44772-3 1v5c0 0.55228 1.3431 1 3 1s3-0.44772 3-1v-5c0-0.55228-1.3431-1-3-1zm0 1c0.73919 8.7e-4 1.4514 0.09268 2 0.25781v0.48633c-0.54948 0.16443-1.2616 0.25552-2 0.25586-0.73919-8.7e-4 -1.4514-0.09268-2-0.25781v-0.48633c0.54948-0.16443 1.2616-0.25552 2-0.25586z"
     fill="currentColor"
     id="path5"/>
  <path
     class="ColorScheme-NegativeText"
     d="m9 6v5h2v-5zm0 6v2h2v-2z"
     fill="currentColor"
     id="path7"/>
  <path
     class="ColorScheme-Text"
     d="m7 3c-1.662 0-3 1.338-3 3v10c0 1.662 1.338 3 3 3h5v-3h-5l-2-2v-2.0996c0.6-0.2 1-0.80039 1-1.4004s-0.4-1.2004-1-1.4004v-3.0996c0-1.108 0.892-2 2-2h6c1.108 0 2 0.892 2 2v3.0996c-0.6 0.2-1 0.80039-1 1.4004 6.76e-4 0.2-3.92e-4 0.3 0.09961 0.5h1.9004v-5c0-1.662-1.338-3-3-3zm0 14a0.5 0.5 0 0 1 0.025391 0h3.9746v1h-4a0.5 0.5 0 0 1-0.5-0.5 0.5 0.5 0 0 1 0.5-0.5z"
     fill="currentColor"
     id="path9" />
</svg>
