<?xml version="1.0" encoding="UTF-8" standalone="no"?>
<svg
   version="1.1"
   viewBox="0 0 22 22"
   id="svg145"
   sodipodi:docname="disk-quota-high.svg"
   inkscape:version="1.2.2 (b0a8486541, 2022-12-01)"
   xmlns:inkscape="http://www.inkscape.org/namespaces/inkscape"
   xmlns:sodipodi="http://sodipodi.sourceforge.net/DTD/sodipodi-0.dtd"
   xmlns="http://www.w3.org/2000/svg"
   xmlns:svg="http://www.w3.org/2000/svg">
  <sodipodi:namedview
     id="namedview147"
     pagecolor="#ffffff"
     bordercolor="#000000"
     borderopacity="0.25"
     inkscape:showpageshadow="2"
     inkscape:pageopacity="0.0"
     inkscape:pagecheckerboard="0"
     inkscape:deskcolor="#d1d1d1"
     showgrid="false"
     inkscape:zoom="36.772727"
     inkscape:cx="10.972806"
     inkscape:cy="11.027194"
     inkscape:current-layer="svg145" />
  <defs
     id="defs139">
    <style
       id="current-color-scheme"
       type="text/css">.ColorScheme-Text {
                color:#363636;
            }
            .ColorScheme-NegativeText {
                color:#d48787;
            }</style>
  </defs>
  <path
     class="ColorScheme-NegativeText"
     d="m16 12a3 1 0 0 0-3 1v5a3 1 0 0 0 3 1 3 1 0 0 0 3-1v-5a3 1 0 0 0-3-1zm-0.1 1a3 1 0 0 1 0.1 0 3 1 0 0 1 2 0.25781v0.48219a3 1 0 0 1-2 0.26 3 1 0 0 1-2-0.3v-0.5a3 1 0 0 1 1.9-0.2zm-1.9 1.74a3 1 0 0 0 2 0.26 3 1 0 0 0 2-0.26v1a3 1 0 0 1-2 0.26 3 1 0 0 1-2-0.3v-0.96zm0 2a3 1 0 0 0 2 0.26 3 1 0 0 0 2-0.26v1a3 1 0 0 1-2 0.26 3 1 0 0 1-2-0.3v-0.96z"
     fill="currentColor"
     id="path141"
     style="fill:#d48787" />
  <path
     class="ColorScheme-Text"
     d="m7 3c-1.662 0-3 1.338-3 3v10c0 1.662 1.338 3 3 3h5v-3h-5l-2-2v-2.0996c0.6-0.2 1-0.80039 1-1.4004s-0.4-1.2004-1-1.4004v-3.0996c0-1.108 0.892-2 2-2h6c1.108 0 2 0.892 2 2v3.0996c-0.6 0.2-1 0.80039-1 1.4004 6.76e-4 0.2-3.92e-4 0.3 0.09961 0.5h1.9004v-5c0-1.662-1.338-3-3-3zm0 14a0.5 0.5 0 0 1 0.025391 0h3.9746v1h-4a0.5 0.5 0 0 1-0.5-0.5 0.5 0.5 0 0 1 0.5-0.5z"
     fill="currentColor"
     id="path143" />
</svg>
