<?xml version="1.0" encoding="UTF-8" standalone="no"?>
<svg
   version="1.1"
   viewBox="0 0 32 32"
   id="svg535"
   sodipodi:docname="system-save-session.svg"
   inkscape:version="1.2.2 (b0a8486541, 2022-12-01)"
   xmlns:inkscape="http://www.inkscape.org/namespaces/inkscape"
   xmlns:sodipodi="http://sodipodi.sourceforge.net/DTD/sodipodi-0.dtd"
   xmlns="http://www.w3.org/2000/svg"
   xmlns:svg="http://www.w3.org/2000/svg">
  <sodipodi:namedview
     id="namedview537"
     pagecolor="#ffffff"
     bordercolor="#000000"
     borderopacity="0.25"
     inkscape:showpageshadow="2"
     inkscape:pageopacity="0.0"
     inkscape:pagecheckerboard="0"
     inkscape:deskcolor="#d1d1d1"
     showgrid="false"
     inkscape:zoom="25.65625"
     inkscape:cx="11.459196"
     inkscape:cy="16.038977"
     inkscape:window-width="1920"
     inkscape:window-height="1021"
     inkscape:window-x="0"
     inkscape:window-y="0"
     inkscape:window-maximized="1"
     inkscape:current-layer="svg535" />
  <defs
     id="defs521">
    <style
       id="current-color-scheme"
       type="text/css">.ColorScheme-Text {
        color:#363636;
      }</style>
  </defs>
  <path
     d="m16 6a10 10 0 0 0-10 10 10 10 0 0 0 10 10 10 10 0 0 0 10-10 10 10 0 0 0-10-10zm0 1a9 9 0 0 1 9 9 9 9 0 0 1-9 9 9 9 0 0 1-9-9 9 9 0 0 1 9-9z"
     fill="#ffffff"
     fill-rule="evenodd"
     stroke-linecap="round"
     stroke-linejoin="round"
     id="path525" />
  <g
     transform="translate(0,2.5)"
     fill="#ffffff"
     fill-rule="evenodd"
     stroke-linecap="round"
     stroke-linejoin="round"
     id="g533">
    <rect
       x="15.5"
       y="9"
       width="1"
       height="9"
       rx=".5"
       ry=".5"
       stroke-width=".90453"
       id="rect527" />
    <rect
       transform="rotate(-45)"
       x="-1.5607"
       y="17.187"
       width="1"
       height="7"
       rx=".5"
       ry=".5"
       stroke-width=".79772"
       id="rect529" />
    <rect
       transform="matrix(-.70711 -.70711 -.70711 .70711 0 0)"
       x="-24.188"
       y="-5.44"
       width="1"
       height="7"
       rx=".5"
       ry=".5"
       stroke-width=".79772"
       id="rect531" />
  </g>
</svg>
