<?xml version="1.0" encoding="UTF-8" standalone="no"?>
<svg
   version="1.1"
   viewBox="0 0 32 32"
   id="svg399"
   sodipodi:docname="system-reboot.svg"
   inkscape:version="1.2.2 (b0a8486541, 2022-12-01)"
   xmlns:inkscape="http://www.inkscape.org/namespaces/inkscape"
   xmlns:sodipodi="http://sodipodi.sourceforge.net/DTD/sodipodi-0.dtd"
   xmlns="http://www.w3.org/2000/svg"
   xmlns:svg="http://www.w3.org/2000/svg">
  <sodipodi:namedview
     id="namedview401"
     pagecolor="#ffffff"
     bordercolor="#000000"
     borderopacity="0.25"
     inkscape:showpageshadow="2"
     inkscape:pageopacity="0.0"
     inkscape:pagecheckerboard="0"
     inkscape:deskcolor="#d1d1d1"
     showgrid="false"
     inkscape:zoom="25.65625"
     inkscape:cx="11.459196"
     inkscape:cy="16.038977"
     inkscape:window-width="1920"
     inkscape:window-height="1021"
     inkscape:window-x="0"
     inkscape:window-y="0"
     inkscape:window-maximized="1"
     inkscape:current-layer="svg399" />
  <defs
     id="defs393">
    <style
       id="current-color-scheme"
       type="text/css">.ColorScheme-Text {
                color:#363636;
            }</style>
  </defs>
  <path
     d="m8.9304 8.9324a10 10 0 0 0-1.7871 11.687l0.74854-0.74854a9 9 0 0 1 1.7457-10.231 9 9 0 0 1 9.22-2.1489l-3.5632 3.5632 0.70711 0.70711 4.6224-4.6224a10 10 0 0 0-11.694 1.794zm2.4555 15.929a10 10 0 0 0 11.687-1.7871 10 10 0 0 0 1.7871-11.687l-0.74854 0.74854a9 9 0 0 1-1.7457 10.231 9 9 0 0 1-9.2117 2.1407l3.5549-3.5549-0.70711-0.70711-3.867 3.867z"
     fill="#ffffff"
     fill-rule="evenodd"
     stroke-linecap="round"
     stroke-linejoin="round"
     stroke-width="1.1111"
     id="path397" />
</svg>
