<?xml version="1.0" encoding="UTF-8" standalone="no"?>
<svg
   version="1.1"
   viewBox="0 0 32 32"
   id="svg665"
   sodipodi:docname="system-shutdown.svg"
   inkscape:version="1.2.2 (b0a8486541, 2022-12-01)"
   xmlns:inkscape="http://www.inkscape.org/namespaces/inkscape"
   xmlns:sodipodi="http://sodipodi.sourceforge.net/DTD/sodipodi-0.dtd"
   xmlns="http://www.w3.org/2000/svg"
   xmlns:svg="http://www.w3.org/2000/svg">
  <sodipodi:namedview
     id="namedview667"
     pagecolor="#ffffff"
     bordercolor="#000000"
     borderopacity="0.25"
     inkscape:showpageshadow="2"
     inkscape:pageopacity="0.0"
     inkscape:pagecheckerboard="0"
     inkscape:deskcolor="#d1d1d1"
     showgrid="false"
     inkscape:zoom="25.65625"
     inkscape:cx="11.459196"
     inkscape:cy="16.038977"
     inkscape:window-width="1920"
     inkscape:window-height="1021"
     inkscape:window-x="0"
     inkscape:window-y="0"
     inkscape:window-maximized="1"
     inkscape:current-layer="svg665" />
  <defs
     id="defs657">
    <style
       id="current-color-scheme"
       type="text/css">.ColorScheme-Text {
        color:#363636;
      }</style>
  </defs>
  <path
     d="m22.332 8.2598-0.63281 0.77539a9 9 0 0 1 3.3008 6.9648 9 9 0 0 1-9 9 9 9 0 0 1-9-9 9 9 0 0 1 3.3164-6.9453l-0.63867-0.78125a10 10 0 0 0-3.6777 7.7266 10 10 0 0 0 10 10 10 10 0 0 0 10-10 10 10 0 0 0-3.668-7.7402z"
     fill="#ffffff"
     fill-rule="evenodd"
     stroke-linecap="round"
     stroke-linejoin="round"
     stroke-width=".95238"
     id="path661" />
  <rect
     x="15.5"
     y="6"
     width="1"
     height="9"
     fill="#ffffff"
     stroke-linecap="round"
     stroke-linejoin="round"
     stroke-width="54"
     style="paint-order:stroke fill markers"
     id="rect663" />
</svg>
