<?xml version="1.0" encoding="UTF-8" standalone="no"?>
<svg
   width="16"
   height="16"
   version="1.1"
   id="svg367"
   sodipodi:docname="call-outgoing-symbolic.svg"
   inkscape:version="1.2.2 (b0a8486541, 2022-12-01)"
   xmlns:inkscape="http://www.inkscape.org/namespaces/inkscape"
   xmlns:sodipodi="http://sodipodi.sourceforge.net/DTD/sodipodi-0.dtd"
   xmlns="http://www.w3.org/2000/svg"
   xmlns:svg="http://www.w3.org/2000/svg">
  <defs
     id="defs371" />
  <sodipodi:namedview
     id="namedview369"
     pagecolor="#ffffff"
     bordercolor="#000000"
     borderopacity="0.25"
     inkscape:showpageshadow="2"
     inkscape:pageopacity="0.0"
     inkscape:pagecheckerboard="0"
     inkscape:deskcolor="#d1d1d1"
     showgrid="false"
     inkscape:zoom="50.5625"
     inkscape:cx="8"
     inkscape:cy="8.0098888"
     inkscape:current-layer="svg367" />
  <path
     d="M 7.5,9.00003 V 2.91413 L 4.8184,5.59573 A 0.5,0.5 0 0 1 4.11137,4.8887 L 8.00007,1 l 3.8887,3.8887 a 0.5,0.5 0 1 1 -0.70703,0.70703 l -2.6816,-2.6816 v 6.0859 h -1 z"
     fill="#363636"
     id="path363" />
  <path
     d="m1 14c0 1 1 1 1 1h2s1 0 1-1v-0.5c0-1.5 2-1.5 2-1.5h2s2 0 2 1.5v0.5c0 1 1 1 1 1h2s1 0 1-1v-1c0-3.5-5.5-3-5.5-3h-3s-5.5-0.5-5.5 3z"
     fill="#363636"
     id="path365" />
</svg>
