<?xml version="1.0" encoding="UTF-8" standalone="no"?>
<svg
   width="22"
   height="22"
   version="1.1"
   viewBox="0 0 22 22"
   id="svg25"
   sodipodi:docname="preferences-desktop-baloo.svg"
   inkscape:version="1.2.2 (b0a8486541, 2022-12-01)"
   xmlns:inkscape="http://www.inkscape.org/namespaces/inkscape"
   xmlns:sodipodi="http://sodipodi.sourceforge.net/DTD/sodipodi-0.dtd"
   xmlns="http://www.w3.org/2000/svg"
   xmlns:svg="http://www.w3.org/2000/svg">
  <sodipodi:namedview
     id="namedview27"
     pagecolor="#ffffff"
     bordercolor="#000000"
     borderopacity="0.25"
     inkscape:showpageshadow="2"
     inkscape:pageopacity="0.0"
     inkscape:pagecheckerboard="0"
     inkscape:deskcolor="#d1d1d1"
     showgrid="false"
     inkscape:zoom="36.772727"
     inkscape:cx="11"
     inkscape:cy="11.027194"
     inkscape:current-layer="svg25" />
  <circle
     cx="10.984"
     cy="10.984"
     r="8.9838"
     stroke-width=".8799"
     id="circle17"
     style="fill:#507e95" />
  <g
     stroke-width="2"
     id="g23"
     style="fill:#b8d3e0">
    <path
       d="m11 5v1zm-3.5 2.5v1l0.5 1.5h1v-1h-1zm7 0-0.5 1.5h-1v1h1l0.5-1.5zm-4.25 0.5v1h1.5v-1zm-4.75 1.5v1l0.5 1.5h1v-1h-1zm11 0-0.5 1.5h-1v1h1l0.5-1.5zm-7.5 1.5v1zm-2 2v1c0 0.5304 0.21086 1.039 0.58594 1.4141 0.37507 0.3751 0.88363 0.58594 1.4141 0.58594s1.039-0.21084 1.4141-0.58594c0.3751-0.3751 0.58594-0.88366 0.58594-1.4141 0 0.5304 0.21084 1.039 0.58594 1.4141 0.3751 0.3751 0.88366 0.58594 1.4141 0.58594s1.039-0.21084 1.4141-0.58594c0.3751-0.3751 0.58594-0.88366 0.58594-1.4141v-1c0 0.5304-0.21084 1.039-0.58594 1.4141-0.3751 0.3751-0.88366 0.58594-1.4141 0.58594s-1.039-0.21084-1.4141-0.58594c-0.3751-0.3751-0.58594-0.88366-0.58594-1.4141 0 0.5304-0.21084 1.039-0.58594 1.4141-0.3751 0.3751-0.88363 0.58594-1.4141 0.58594s-1.039-0.21084-1.4141-0.58594c-0.37508-0.3751-0.58594-0.88366-0.58594-1.4141z"
       filter="url(#filter9)"
       opacity=".08"
       id="path19"
       style="fill:#b8d3e0" />
    <path
       d="m11 5-.75 1.5v1.5h1.5v-1.5zm-2.75 1-.75 1.5.5 1.5h1v-1.5zm5.5 0-.75 1.5v1.5h1l.5-1.5zm-7.5 2-.75 1.5.5 1.5h1v-1.5zm9.5 0-.75 1.5v1.5h1l.5-1.5zm-4.75 1a2 2 0 0 0 -2 2 2 2 0 0 0 -2 2 2 2 0 0 0 2 2 2 2 0 0 0 2-2 2 2 0 0 0 2 2 2 2 0 0 0 2-2 2 2 0 0 0 -2-2 2 2 0 0 0 -2-2z"
       id="path21"
       style="fill:#e4f4fd" />
  </g>
</svg>
